<?xml version="1.0" encoding="UTF-8" standalone="no"?>
<svg
   xmlns:dc="http://purl.org/dc/elements/1.1/"
   xmlns:cc="http://creativecommons.org/ns#"
   xmlns:rdf="http://www.w3.org/1999/02/22-rdf-syntax-ns#"
   xmlns:svg="http://www.w3.org/2000/svg"
   xmlns="http://www.w3.org/2000/svg"
   xmlns:sodipodi="http://sodipodi.sourceforge.net/DTD/sodipodi-0.dtd"
   xmlns:inkscape="http://www.inkscape.org/namespaces/inkscape"
   width="1038"
   height="1038"
   viewBox="0 0 286.12387 286.016"
   version="1.1"
   id="svg8"
   sodipodi:docname="cs.svg"
   inkscape:export-filename="C:\Users\Александр\Desktop\counter-strike-global-offensive-2.png"
   inkscape:export-xdpi="92.48555"
   inkscape:export-ydpi="92.48555"
   inkscape:version="0.92.3 (2405546, 2018-03-11)">
  <metadata
     id="metadata14">
    <rdf:RDF>
      <cc:Work
         rdf:about="">
        <dc:format>image/svg+xml</dc:format>
        <dc:type
           rdf:resource="http://purl.org/dc/dcmitype/StillImage" />
        <dc:title></dc:title>
      </cc:Work>
    </rdf:RDF>
  </metadata>
  <defs
     id="defs12" />
  <sodipodi:namedview
     pagecolor="#ffffff"
     bordercolor="#666666"
     borderopacity="1"
     objecttolerance="10"
     gridtolerance="10"
     guidetolerance="10"
     inkscape:pageopacity="0"
     inkscape:pageshadow="2"
     inkscape:window-width="1366"
     inkscape:window-height="705"
     id="namedview10"
     showgrid="false"
     inkscape:measure-start="0,0"
     inkscape:measure-end="0,0"
     inkscape:zoom="0.42992092"
     inkscape:cx="294.93461"
     inkscape:cy="595.34114"
     inkscape:window-x="-8"
     inkscape:window-y="-8"
     inkscape:window-maximized="1"
     inkscape:current-layer="g6" />
  <g
     id="g6"
     style="fill:#000000"
     transform="translate(-195.74718)">
    <path
       d="m 343.816,0.699 c 4.56,-1.58 9.541,-0.261 13.72,1.8 2.92,1.88 5.84,3.78 9.11,5.01 0.25,0.47 0.77,1.4 1.02,1.86 -0.13,0.31 -0.38,0.95 -0.51,1.26 2.33,5.3 3.82,11.58 1.56,17.149 -1.54,1.88 -4.22,2.171 -6.39,2.899 -0.01,2.69 0.42,5.351 0.65,8.021 4.64,0.75 8.568,-2.48 13.158,-2.16 0.62,-2.57 1.11,-5.182 1.932,-7.701 0.95,1.67 0.989,3.591 1,5.471 1.2,0.34 2.42,0.65 3.648,0.949 0.012,0.461 0.021,1.381 0.021,1.841 20.12,0.12 40.229,-0.091 60.35,0.11 -0.05,0.688 -0.148,2.069 -0.188,2.76 0.52,0 1.58,0.01 2.108,0.01 -0.02,-3.659 0,-7.33 -0.01,-10.989 0.51,-0.021 1.51,-0.051 2.01,-0.061 0.012,2.88 0.021,5.76 0.051,8.641 0.439,0.54 1.319,1.619 1.761,2.159 0.33,-0.391 0.989,-1.159 1.318,-1.55 1.53,1.431 0.66,3.391 0.592,5.149 5.63,-0.061 11.318,0.319 16.93,-0.141 0.42,-0.31 1.26,-0.92 1.68,-1.229 0.771,0.299 1.55,0.6 2.32,0.91 2.53,-0.062 5.07,-0.07 7.61,-0.08 -0.052,1.31 -0.092,2.619 -0.142,3.93 -3.27,-0.051 -6.55,-0.12 -9.77,0.439 -2.08,-1.789 -4.87,-1.221 -7.38,-1.289 -3.86,0.18 -7.842,-0.5 -11.58,0.729 -2.222,0.62 -4.66,0.471 -6.62,-0.79 -0.472,1.17 0.25,3.79 -1.722,3.689 -7.76,0.101 -15.51,-0.069 -23.26,0.051 -1.06,0.56 -2.13,1.09 -3.188,1.609 -1.12,3.34 -4.33,5.569 -7.062,7.609 -0.34,5.13 1.69,9.92 2.48,14.899 -1.53,0.439 -3.07,0.891 -4.58,1.391 -2.17,5.12 -0.84,12.109 -5.86,15.681 -3.85,2.239 -6.398,7.109 -11.59,6.34 2.64,2.2 -0.72,1.51 -0.37,-0.25 -9.39,-0.83 -17.3,-6.34 -25.46,-10.539 -0.38,2.299 -0.979,4.56 -1.6,6.81 3.1,0.59 5.66,2.87 6.21,6.05 0.99,6.931 -0.99,13.812 -0.96,20.761 0.22,4.08 -1.53,7.819 -3.71,11.149 -1.91,2.16 -4.92,-0.061 -7.21,-0.38 -0.521,1.01 -1.03,2.021 -1.53,3.04 0.65,2.719 0.93,5.549 1.84,8.209 5.11,5.65 9.76,11.771 13.33,18.521 a 244.586,244.586 0 0 1 9.811,23.459 c 0.279,1.551 1.739,2.108 3.021,2.67 0.17,1.6 0.34,3.198 0.5,4.819 0.5,0.73 1.01,1.459 1.53,2.199 0.31,9.861 -0.9,19.68 -2.432,29.41 -0.948,4.391 1.62,8.68 0.58,13.1 0.12,2.263 -1.438,3.972 -2.17,5.972 -0.14,4.67 -0.37,9.399 0.142,14.061 0.358,3.42 3.25,5.619 5.21,8.17 2.14,2.271 3.93,5.32 7.17,6.129 3.05,0.91 5.96,2.23 8.648,3.961 0.82,2.029 0.67,4.181 0.28,6.289 -5.86,1.08 -11.84,0.541 -17.76,0.632 -4.562,0.239 -8.63,-2.211 -13.062,-2.722 -4.29,-0.108 -9.52,2.021 -12.818,-1.819 1.398,-5.328 1.51,-11.05 4.068,-16.021 0.82,-5.629 -0.738,-11.34 -0.41,-17.02 -0.488,-0.41 -1.47,-1.23 -1.96,-1.642 0.352,-3.709 -1.479,-7.01 -2.09,-10.559 -0.398,-5.183 -0.87,-10.361 -1.47,-15.521 -0.47,-2.51 0.83,-4.809 2.6,-6.479 0.16,-2.9 0.552,-5.771 0.83,-8.65 -0.43,-1.871 -1.92,-3.26 -2.88,-4.86 -3.21,1.352 -7.54,0.711 -9.45,-2.431 -4.529,-6.739 -9.05,-13.479 -13.63,-20.18 -1.8,-0.119 -3.7,0.07 -5.38,-0.65 -1.938,-1.989 -2.95,-4.639 -4.188,-7.059 -1.771,1.99 -1.642,5.039 -3.74,6.85 -4.44,4.261 -5.62,10.521 -7.94,15.98 -1.778,3.539 -0.778,7.809 -2.76,11.26 -1.06,1.859 -3.72,2.229 -4.42,4.351 -0.92,2.288 -2,4.659 -4.15,6.051 -2.33,1.528 -2.949,4.43 -3.988,6.828 -0.95,2.211 0.46,4.53 0.13,6.801 -1.48,7.211 -6.07,13.24 -8,20.301 -0.88,3.18 -2.141,6.76 -5.841,7.439 -4.21,7.52 -6.529,16.721 -4.149,25.188 1.46,2.66 1.38,5.65 0.93,8.58 -6.689,0.521 -13.55,1.42 -20.119,-0.449 -1.54,-3.051 -1.32,-6.641 -1,-9.938 2.029,-8.672 4.72,-17.191 6.369,-25.951 -2.06,-1.83 -1.579,-4.629 -1.54,-7.08 -0.069,-4.57 3.04,-8.23 5.2,-11.98 0.811,-3.85 0.431,-7.987 2.42,-11.52 2.341,-4.42 4.32,-9.199 7.931,-12.77 0.689,-3.15 3.011,-5.529 3.949,-8.562 1,-2.68 -0.75,-5.4 -0.398,-8.139 0.859,-8.312 2.37,-16.541 3.68,-24.791 -2.479,-2.07 -1.68,-5.359 -2.47,-8.15 0.39,-1.1 0.88,-2.149 1.47,-3.17 -0.62,-0.57 -1.229,-1.15 -1.85,-1.719 0.6,-2.933 0.43,-8.183 4.93,-7.23 0.28,-9.71 -3.09,-19.11 -1.96,-28.831 0.6,0.699 1.189,1.41 1.79,2.12 l -0.32,-3.29 c 1.88,-1 3.88,-1.77 5.98,-2.16 -3.42,-0.449 -6.75,-1.319 -10.102,-2.1 -0.81,-2.131 -0.358,-4.4 -0.06,-6.58 1.3,-7.36 1.78,-14.82 2.05,-22.28 3.79,-1.318 7.97,-0.199 11.67,-1.96 -1.148,-9.33 -1.438,-19.069 1.88,-28.02 2.67,-7.621 7.771,-14.971 15.73,-17.65 3.76,-0.899 8.49,-1.91 11.148,1.74 0.73,-0.67 1.46,-1.36 2.19,-2.03 -6.069,-12.054 1.181,-29.664 14.953,-32.144 m 48.569,52.28 c -1.6,0.98 -3.17,2.101 -1.488,3.881 -0.82,0.489 -1.642,0.96 -2.472,1.409 -1.3,1 -4.22,1.569 -3.88,3.591 a 48.68,48.68 0 0 1 3.761,7.369 c 3.189,-2.619 5.729,-6.141 7.449,-9.869 0.36,-0.37 1.091,-1.11 1.45,-1.471 -0.16,-1.71 -0.54,-3.381 -1.21,-4.96 -1.2,0.021 -2.41,0.04 -3.61,0.05 z"
       id="path2"
       inkscape:export-filename="C:\Users\Александр\Desktop\path2.png"
       inkscape:export-xdpi="100000"
       inkscape:export-ydpi="100000"
       inkscape:connector-curvature="0"
       style="fill:#ffffff" />
  </g>
</svg>
