<svg xmlns="http://www.w3.org/2000/svg" viewBox="0 0 511.998 511.998"><path d="M504.997 122.926c-1.954-92.43-2.076-72.451-.172-101.259a3.102 3.102 0 0 0-2.884-3.3c-137.635-9.415-142.85-10.5-153.516-10.5-187.761-.015-89.187-3.084-339.808 11.7a3.103 3.103 0 0 0-2.915 3.26c16.152 309.89 15.562 259.337 7.311 465.87a3.1 3.1 0 0 0 2.387 3.142c18.757 4.435 15.433 2.69 59.188 2.72.071.022 81.997-8.924 82.071-8.932.387.064 113.29 18.594 113.683 18.594.086 0 .172-.003.258-.011 132.32-11.089 94.392-8.41 179.758-13.14l50.125 10.138a3.104 3.104 0 0 0 3.717-3.074c-1.086-100.918.797-375.208.797-375.208zm-203.47-7.356c.372-.09.905-.221 1.57-.398l35.678-8.04c18.275-4.58 20.975-5.695 36.614-13.048h.001c7.22 2.505 27.018 13.46 32.037 19.75 3.317 4.164 3.098 5.09 2.055 9.549-.2.856-.43 1.84-.671 3.004a3.645 3.645 0 0 0-.04.233l-7.846 61.396c-7.763.286-8.41-.309-10.557-2.285-.886-.819-1.99-1.835-3.935-3.139-11.805-7.923-50.438-36.51-62.637-46.349l-23.982-19.268.194-.187c.26-.258.49-.606.643-.938.12-.095.595-.211.875-.28zm55.597 309.122c-.702-.701-299.804-317.786-300.023-318.224l26.13-20.046L448.4 328.22c-3.018 8.647-4.223 18.571-6.038 26.812-6.415 29.105-14.665 41.84-27.565 69.493-18.465.735-56.4.593-57.672.167zM85.039 338.905c3.362-8.08 7.984-21.079 11.869-27.663 19.1 11.935 93.712 86.903 100.2 97.025-3.593 1.334-19.031 3.628-44.68 13.874-16.252 6.483-31.597 12.633-46.418 7.604-1.479-.499-5.42-3.843-11.262-8.886-10.672-9.213-20.336-15.85-25.955-19.167-9.585-5.658-8.092-4.465 16.246-62.787z" fill="#fff"/></svg>