<?xml version="1.0" encoding="UTF-8" standalone="no"?>
<svg
   xmlns:dc="http://purl.org/dc/elements/1.1/"
   xmlns:cc="http://creativecommons.org/ns#"
   xmlns:rdf="http://www.w3.org/1999/02/22-rdf-syntax-ns#"
   xmlns:svg="http://www.w3.org/2000/svg"
   xmlns="http://www.w3.org/2000/svg"
   xmlns:sodipodi="http://sodipodi.sourceforge.net/DTD/sodipodi-0.dtd"
   xmlns:inkscape="http://www.inkscape.org/namespaces/inkscape"
   enable-background="new 0 0 128 128"
   version="1.1"
   viewBox="0 0 128 128"
   xml:space="preserve"
   id="svg4"
   sodipodi:docname="hs-logo.svg"
   inkscape:version="0.92.3 (2405546, 2018-03-11)"><metadata
   id="metadata10"><rdf:RDF><cc:Work
       rdf:about=""><dc:format>image/svg+xml</dc:format><dc:type
         rdf:resource="http://purl.org/dc/dcmitype/StillImage" /><dc:title></dc:title></cc:Work></rdf:RDF></metadata><defs
   id="defs8" /><sodipodi:namedview
   pagecolor="#ffffff"
   bordercolor="#666666"
   borderopacity="1"
   objecttolerance="10"
   gridtolerance="10"
   guidetolerance="10"
   inkscape:pageopacity="0"
   inkscape:pageshadow="2"
   inkscape:window-width="1366"
   inkscape:window-height="705"
   id="namedview6"
   showgrid="false"
   inkscape:zoom="1.84375"
   inkscape:cx="64"
   inkscape:cy="64"
   inkscape:window-x="-8"
   inkscape:window-y="-8"
   inkscape:window-maximized="1"
   inkscape:current-layer="svg4" />
	<path
   d="m 53.855774,49.249653 c 0,0 20.513213,-1.705283 21.046539,17.529534 C 75.434506,86.014005 56.519004,88.677235 44.797168,88.145042 33.075332,87.611717 8.3000446,71.36171 10.164985,45.519772 l 1.44598,-9.203544 4.120533,-4.738783 c 0,0 9.476435,-19.160084 31.109518,-24.9281517 0,0 1.853617,-3.090117 4.120533,-3.090117 2.265784,0 4.120534,2.4718671 7.416734,2.8840337 3.2962,0.4121665 4.5327,-3.090117 7.622817,-2.8840337 3.090117,0.2060833 3.2962,2.4718671 6.592401,3.090117 3.2962,0.6182498 19.366167,2.4718671 32.344889,20.1905007 0,0 0.61825,4.5327 2.47186,5.357033 1.85362,0.824333 6.18024,2.67795 6.79849,4.120533 0.61825,1.442583 4.94486,16.893168 4.5327,23.486701 -0.41217,6.5924 -2.26579,37.289751 -22.662371,46.766189 l -0.412167,5.56198 c 0,0 -15.245634,13.59697 -38.526251,11.94943 -23.280617,-1.64753 -29.549173,-4.10015 -35.022835,-11.53726 -0.754129,-1.02476 -1.853618,-4.73879 -1.853618,-4.73879 l -2.0597,-4.32661 c 0,0 -1.853617,-3.09012 2.0597,-2.47187 3.914451,0.61825 18.129668,6.18023 25.958568,6.38632 7.8289,0.20608 11.949434,-3.91445 13.390884,-4.32662 1.442583,-0.41217 9.888601,-3.708366 12.361601,-4.120533 2.471867,-0.412166 17.717501,-9.740266 19.984417,-32.16711 2.266916,-22.426843 -17.924717,-35.612777 -29.461984,-35.81886 0,0 -7.21065,-0.206083 -8.859317,0.824333 -1.648666,1.030417 -12.3616,5.974151 -17.099251,6.592401 0,0 -3.91445,3.708367 -3.2962,8.241066 0.61825,4.5327 0.61825,20.132752 17.099251,20.16106 0,0 3.935965,-2.124243 3.513607,-17.529534 z"
   id="path2"
   style="fill:#ffffff;stroke-width:1.13232577"
   inkscape:connector-curvature="0" />
</svg>