<?xml version="1.0" encoding="UTF-8" standalone="no"?>
<svg
   xmlns:dc="http://purl.org/dc/elements/1.1/"
   xmlns:cc="http://creativecommons.org/ns#"
   xmlns:rdf="http://www.w3.org/1999/02/22-rdf-syntax-ns#"
   xmlns:svg="http://www.w3.org/2000/svg"
   xmlns="http://www.w3.org/2000/svg"
   xmlns:sodipodi="http://sodipodi.sourceforge.net/DTD/sodipodi-0.dtd"
   xmlns:inkscape="http://www.inkscape.org/namespaces/inkscape"
   enable-background="new 0 0 894.3 517.7"
   viewBox="0 0 894.3 894.29997"
   version="1.1"
   id="svg6"
   sodipodi:docname="pubg-logo.svg"
   width="894.29999"
   height="894.29999"
   inkscape:version="0.92.3 (2405546, 2018-03-11)">
  <metadata
     id="metadata12">
    <rdf:RDF>
      <cc:Work
         rdf:about="">
        <dc:format>image/svg+xml</dc:format>
        <dc:type
           rdf:resource="http://purl.org/dc/dcmitype/StillImage" />
        <dc:title></dc:title>
      </cc:Work>
    </rdf:RDF>
  </metadata>
  <defs
     id="defs10" />
  <sodipodi:namedview
     pagecolor="#ffffff"
     bordercolor="#666666"
     borderopacity="1"
     objecttolerance="10"
     gridtolerance="10"
     guidetolerance="10"
     inkscape:pageopacity="0"
     inkscape:pageshadow="2"
     inkscape:window-width="1366"
     inkscape:window-height="705"
     id="namedview8"
     showgrid="false"
     inkscape:zoom="0.42491335"
     inkscape:cx="245.88682"
     inkscape:cy="297.93068"
     inkscape:window-x="-8"
     inkscape:window-y="-8"
     inkscape:window-maximized="1"
     inkscape:current-layer="svg6" />
  <path
     d="m 58.139558,187.93303 c -6.3,1.9 -11,4.5 -14.5,8.8 -5,6 -5.2,6.9 -4.8,24.8 0.2,10.3 0.2,28.5 0,40.8 -0.2,22 -0.2,22 -4.3,20.7 -8.2,-2.8 -27.8000003,-1.5 -31.1000003,2.1 -2.80000003,3.00001 -2.80000003,3.00001 0.4,1.90001 2.4,-0.7 3.2,-0.4 2.6,1.1 -0.4,1.3 -1.9,2.2 -3,1.9 -1.3,-0.2 -2.1,3.2 -2.1,9.3 0,5.4 -0.60000003,12.9 -1.10000003,16.4 -0.7,5.2 0,7.5 3.90000003,11.6 4.5000004,4.8 6.0000003,5.2 19.4000003,5.2 12.5,0 14.7,0.6 15.5,3.2 1.1,4.3 -0.2,217.1 -1.3,220.1 -0.6,1.7 -4.8,2.4 -12.9,2.4 -8.1,0 -14,1.1 -17.7000003,3.2 -5.6,3.4 -5.8,3.7 -6,18.3 -0.40000003,29.7 0.4,30.8 23.9000003,30.8 h 15.7 l -0.6,35.8 c -0.7,50.4 0.7,52.6 36.9,54.6 53.700002,2.8 210.900002,3.9 236.700002,1.7 9,-0.7 17,-0.9 25.7,-0.7 12.1,0.2 15.1,0 17.3,-2.1 1.9,-1.5 2.6,-1.5 2.6,0 0,1.1 0.9,2.1 1.9,2.1 1.1,0 1.9,-1.7 1.9,-3.9 0,-2.1 -0.7,-3.2 -1.9,-2.6 -0.9,0.6 -1.9,0.2 -1.9,-0.9 0,-3.4 4.5,-1.1 6.5,3.4 1.9,4.1 2.4,4.1 43.8,4.1 23.1,0 54.8,0.6 70.5,1.1 42.3,1.7 108.6,-0.7 108.6,-4.1 0,-1.5 0.9,-2.6 2.1,-2.6 1.1,0 1.7,1.3 0.9,2.8 -0.7,2.4 1.3,2.8 13.4,2.8 7.8,0.2 50.9,0.4 95.9,0.6 44.8,0.2 80.9,-0.2 80.4,-1.1 -0.4,-0.7 0.6,-1.3 2.2,-1.3 1.9,0 2.4,0.9 1.7,2.2 -2.2,3.5 46.6,0.6 54.8,-3.5 13.6,-6.7 14.4,-9.5 14.5,-50 0.2,-20 0.7,-37.5 1.5,-39.2 0.7,-2.2 2.2,-2.6 5.2,-1.7 5.4,1.9 25.7,0.9 29.5,-1.1 2.4,-1.5 2.2,-1.7 -0.6,-1.9 -2.1,0 -3.2,-0.9 -2.6,-2.4 0.4,-1.1 1.7,-2.1 2.6,-1.9 2.4,0.6 4.3,-29.3 2.2,-33 -4.5,-8 -5.2,-8.4 -22.2,-9.3 l -17,-0.9 -0.4,-112.5 -0.6,-112.3 h 16.6 c 15.3,0 16.6,-0.4 21.1,-5.2 3.9,-4.1 4.7,-6.3 3.9,-11.6 -0.6,-3.5 -1.1,-11 -1.1,-16.2 0,-6.3 -0.7,-9.7 -2.1,-9.3 -1.1,0.2 -2.6,-0.7 -3,-2.1 -0.6,-1.5 0.2,-1.9 2.6,-1.1 3,1.1 3,0.9 0.6,-1.70001 -3,-3.2 -21.4,-4.7 -29.8,-2.4 -8.4,2.2 -9.1,0.2 -10.3,-33.4 -2.1,-51.9 -6,-59.3 -31.5,-58.6 -7.5,0.2 -14.5,-0.2 -15.7,-0.7 -2,-1.8 -33.7,-4 -49.7,-4 -6.2,0.2 -17,0.2 -24.2,0.2 -7.1,0 -44,0.4 -82.1,0.6 -37.9,0.2 -76.1,0.6 -84.9,0.9 -8.8,0.3 -19.6,0.7 -24.2,0.6 -72.4,-1.1 -132.4,-1.5 -135.6,-0.7 -2.4,0.6 -4.1,1.7 -3.7,2.4 0.2,0.7 -0.4,1.5 -1.5,1.7 -0.9,0.4 -1.9,-0.6 -1.9,-1.9 0,-1.7 -9,-2.2 -38.2,-2.2 -29.7,0 -38,0.6 -37.9,2.2 0.4,1.3 -0.7,2.4 -2.4,2.4 -1.5,0 -2.4,-0.7 -1.9,-1.7 2.2,-3.4 -9.9,-3.9 -94.9,-3.9 -47.2,0 -100.9,-0.4 -119.4,-0.7 -24.500002,-0.6 -36.200002,-0.1 -42.900002,1.6 z m 379.100002,50.5 c 255.3,0.4 339.8,-0.2 339.8,-1.7 0,-1.7 0.6,-1.5 1.5,0 0.7,1.3 5.6,2.6 10.6,2.8 l 9.3,0.6 0.2,9.3 c 0.4,14.9 2.8,165.60001 2.6,168.80001 -0.6,15.9 0,135.8 0.9,177.6 0.9,41.8 0.7,53.7 -1.1,54.8 -1.3,0.7 -8.4,1.1 -15.5,0.9 -13.8,-0.6 -64.2,-0.6 -257.4,-0.4 -100.2,0.2 -113.2,0.6 -112.3,3 0.7,1.9 -0.2,2.8 -2.6,2.8 -2.4,0 -3.4,-0.9 -2.6,-2.8 0.9,-2.4 -10.8,-2.6 -93.8,-2.6 -52,0.2 -110,0.7 -128.9,1.3 -18.7,0.7 -33.9,0.7 -33.9,-0.2 0,-2.2 -6.5,-1.5 -9,0.9 -1.7,1.7 -2.8,1.9 -3.7,0.4 -0.7,-1.5 -9.7,-2.2 -24.4,-2.4 -12.7,-0.2 -23.900002,-0.7 -24.600002,-1.3 -0.9,-0.6 -1.7,-7.6 -1.7,-16 0,-12.5 -0.4,-14.7 -2.8,-13.8 -1.9,0.7 -2.8,-0.2 -2.8,-2.6 0,-2.4 0.9,-3.4 2.8,-2.6 2.4,0.9 2.8,-7.3 3,-66.6 0.7,-223.1 0.7,-220.5 -1.9,-221.4 -1.5,-0.6 -1.9,-1.3 -0.6,-2.1 2.8,-1.7 3.2,-24.2 0.6,-32.5 -1.3,-3.7 -1.7,-7.80001 -0.7,-9.10001 0.7,-1.3 1.5,-11.8 1.9,-22.9 0.2,-11.4 0.4,-21.6 0.4,-23.1 0.2,-1.7 1.3,-2.1 3.5,-0.9 1.7,0.7 156.200002,1.6 343.200002,1.8 z"
     id="path2"
     inkscape:connector-curvature="0"
     style="fill:#ffffff" />
  <path
     d="m 682.53956,285.43303 -39.7,0.4 -7.3,7.10001 c -6.2,6 -7.5,8.4 -8.4,17.2 -2.1,17.7 -2.1,42.5 -0.4,82.1 0.9,21.1 1.5,41.6 1.1,45.7 -0.4,4.1 -0.7,38.4 -0.7,76.5 l -0.2,69 4.5,7.3 c 2.4,3.9 7.1,8.2 10.4,9.7 7.5,3.2 82.4,3.9 92.3,0.9 9.1,-2.8 16.4,-12.1 17.5,-22.4 1.9,-18.1 1.1,-155.9 -0.9,-161.1 l -2.1,-5 h -25.6 c -17.3,0 -26.3,0.7 -27.8,2.2 -1.5,1.5 -2.2,8.8 -2.2,20.1 v 17.9 l 5.6,3.2 5.6,3.4 0.2,20.9 c 0,11.6 0,30.2 -0.2,41.8 -0.2,12.5 0.6,22.2 1.9,24.2 1.5,2.4 1.7,4.8 0.2,8.4 -1.9,5 -2.1,5 -16,4.3 -15.9,-0.7 -18.8,-1.9 -15.9,-5.6 2.1,-2.6 3,-133 1.3,-194.3 l -0.9,-30 13.4,-0.7 c 20,-0.9 19.8,-1.1 19.8,12.3 0,6.5 0.9,12.5 2.2,13.8 1.7,1.7 1.7,2.2 0,2.2 -4.1,0 -2.4,5.2 2.1,6.2 6.7,1.3 33,0.2 34.9,-1.7 0.7,-0.9 1.9,-15.3 2.4,-32.1 l 0.7,-30.6 -5.2,-5.2 c -4.5,-4.5 -8.4,-6 -20.9,-8.00001 -1.2,-0.4 -20.1,-0.4 -41.7,-0.1 z m -533,3.60001 c -1.7,1.7 -2.2,12.3 -1.7,38.2 0.6,41.8 0.4,38.6 2.6,35.1 1.5,-2.2 1.9,-1.7 1.9,2.2 0,2.6 -0.9,5.2 -2.2,5.6 -1.7,0.6 -2.2,8.6 -2.2,27.8 -0.2,23.3 -0.6,27.6 -3.4,30.4 -2.8,2.6 -3.4,6.7 -3.4,23.9 0,11.4 0.6,20.1 1.3,19.6 1.7,-1.7 8,4.1 8,7.5 0,1.3 -0.6,2.4 -1.3,2.4 -0.9,0 -1.7,25.6 -2.1,56.9 -0.2,31.3 0.4,56.9 1.1,56.9 0.9,0 2.6,2.1 3.7,4.7 2.1,4.5 2.8,4.7 20.7,4.7 27.6,0 26.1,3.4 25.6,-64.5 -0.4,-29.7 -0.7,-54.8 -1.1,-55.8 -2.1,-8 -1.1,-8.4 25.4,-8.4 28.7,0 39.5,-2.1 45.9,-8.8 l 4.3,-4.7 0.6,-80.9 c 0.4,-54.5 -0.2,-82.3 -1.5,-84.7 -4.7,-8.6 -9.7,-9.3 -66.6,-9.9 -39.4,-0.3 -54.2,0.1 -55.6,1.8 z m 73.6,44.7 c 0.2,1.9 0.2,21.8 0.4,44.4 0,22.6 0.6,39.5 0.9,37.7 1.5,-5.6 4.3,-3.4 4.3,3.5 0,5.4 -0.6,6.5 -3,5.6 -2.1,-0.7 -2.6,-0.2 -1.9,2.2 0.9,2.8 -0.2,3.2 -11.4,2.6 -7.1,-0.4 -13.4,-1.9 -14.9,-3.2 -3,-3 -3.2,-8.4 -0.4,-8.4 1.3,0 1.7,-13.1 0.9,-42.7 -0.4,-23.5 -0.4,-43.3 0.2,-43.8 0.7,-0.6 6.5,-1.1 13.1,-1.1 10,0.1 11.8,0.6 11.8,3.2 z m 86,-45.3 c -3.2,3.7 -2.1,45.1 1.3,44.4 1.1,-0.2 2.2,0.9 2.2,2.4 0,1.5 -1.1,2.6 -2.2,2.2 -1.7,-0.2 -2.6,2.8 -3,9.5 -0.4,7.8 0,9.7 1.9,8.6 1.9,-1.1 1.9,-0.9 0.4,1.3 -3,3.9 -5,215.2 -2.2,227.7 1.7,6.7 3.7,10.3 8.4,13.6 l 6.2,4.8 48.9,-0.7 c 54.5,-0.7 58.4,-1.7 64.3,-13.1 4.1,-8 5.8,-70.9 4.8,-180.4 -0.4,-44.6 -0.7,-89 -0.7,-98.3 0,-10.8 -0.7,-17.7 -2.1,-18.7 -1.3,-0.6 -2.6,-0.2 -3,0.9 -0.9,3.2 -4.1,2.8 -4.1,-0.6 0,-2.2 -3,-2.8 -15.9,-2.8 -25.6,0 -23.7,-6.20001 -23.5,79.8 0.2,39.7 0.7,83.4 1.3,96.8 0.9,17.7 0.6,24.8 -0.9,24.8 -3.4,0 -2.4,7.1 1.3,9.1 2.2,1.5 2.6,2.4 0.9,3.4 -1.3,1.1 -2.4,10.3 -2.8,27 -0.6,21.6 -1.1,26.1 -3.9,28.9 -3.2,3.2 -3.5,3.2 -5.8,0 -2.8,-3.5 -10.6,-4.1 -16.2,-1.1 -5.6,2.8 -11.4,-2.6 -9.9,-9.3 1.3,-5.6 2.2,-160.4 1.3,-216.5 l -0.7,-38.4 -8,-4.3 c -5.4,-3 -9.3,-4.10001 -11.6,-3 -3.5,1.5 -16,1.5 -21.4,-0.2 -1.7,0 -4,0.7 -5.3,2.2 z m 166.2,-0.2 c -2.1,2.8 -2.8,70.5 -0.7,79.6 0.9,3.5 0.9,12.3 0.4,19.6 -0.7,7.3 -0.6,14 0.4,15.3 2.4,3 0,9.9 -3.4,9.9 -1.5,0 -2.2,0.9 -1.7,1.9 0.6,1.1 -0.2,3.2 -1.7,4.8 -3.4,3.4 -4.3,29.5 -1.1,31.5 1.1,0.6 1.9,2.8 1.9,4.7 0,1.9 0.9,3.7 2.1,4.1 1.7,0.6 2.2,17.3 2.2,61.2 -0.2,35.1 0.6,61.5 1.7,62.9 0.9,1.1 0.9,2.6 0.2,3 -0.9,0.6 -1.3,4.5 -0.9,8.6 l 0.7,7.6 49.8,-0.6 c 74.2,-0.6 69.9,4.7 70.1,-87.1 0,-61.7 -0.2,-64.5 -3.7,-68.3 -11.2,-12.1 -12.5,-14.4 -9.5,-16 7.5,-4.1 9.3,-12.7 9.7,-40.7 0.2,-14.9 0.6,-42 0.9,-60.2 0.6,-31.3 0.4,-33.4 -3.4,-36.9 -5.8,-5.8 -14.5,-6.9 -65.1,-7.10001 -35.3,0 -47.4,0.40001 -48.9,2.20001 z m 69.8,42.6 c 1.1,1.9 1.1,16 0,70.7 -0.2,13.6 -1.1,14.4 -15.1,12.1 l -8,-1.1 -1.1,-16.2 c -0.6,-9 -1.1,-17.5 -1.3,-19 0,-1.5 0.6,-13.1 1.3,-25.7 l 1.3,-22.8 h 10.8 c 5.9,-0.1 11.3,0.8 12.1,2 z m -0.8,131.1 c 0.7,1.1 1.5,15.5 1.5,31.9 0,16.4 0.2,37.5 0.2,47 0.2,9.3 -0.2,17.9 -0.9,18.8 -1.5,2.4 -20.9,1.5 -24.1,-1.3 -2.1,-1.7 -2.4,-3.9 -1.3,-9 0.9,-3.7 1.7,-24.8 1.7,-47 0,-34.7 0.4,-40.5 3,-42.3 3.5,-2.6 17.9,-1.3 19.9,1.9 z"
     id="path4"
     inkscape:connector-curvature="0"
     style="fill:#ffffff" />
</svg>
